<?xml version="1.0" encoding="utf-8"?>
<!-- Generated by IcoMoon.io -->
<!DOCTYPE svg PUBLIC "-//W3C//DTD SVG 1.1//EN" "http://www.w3.org/Graphics/SVG/1.1/DTD/svg11.dtd">
<svg version="1.1" xmlns="http://www.w3.org/2000/svg" xmlns:xlink="http://www.w3.org/1999/xlink" width="32" height="32" viewBox="0 0 32 32">
<g>
</g>
	<path d="M19.232 16l12.098-12.099c0.893-0.893 0.893-2.341 0-3.232-0.893-0.893-2.339-0.893-3.232 0l-12.098 12.099-12.098-12.099c-0.893-0.893-2.339-0.893-3.232 0-0.893 0.891-0.893 2.339 0 3.232l12.098 12.099-12.098 12.099c-0.893 0.893-0.893 2.339 0 3.232 0.445 0.446 1.030 0.669 1.615 0.669s1.17-0.222 1.617-0.669l12.098-12.099 12.098 12.099c0.446 0.446 1.032 0.669 1.617 0.669s1.17-0.222 1.617-0.669c0.893-0.893 0.893-2.339 0-3.232l-12.099-12.099z" fill="white" />
</svg>
