<?xml version="1.0" encoding="utf-8"?>
<!-- Generated by IcoMoon.io -->
<!DOCTYPE svg PUBLIC "-//W3C//DTD SVG 1.1//EN" "http://www.w3.org/Graphics/SVG/1.1/DTD/svg11.dtd">
<svg version="1.1" xmlns="http://www.w3.org/2000/svg" xmlns:xlink="http://www.w3.org/1999/xlink" width="32" height="32" viewBox="0 0 32 32">
<g>
</g>
	<path d="M4.108 0h23.786c2.258 0 4.106 1.848 4.106 4.108v23.786c0 2.258-1.848 4.106-4.108 4.106h-23.784c-2.26 0-4.108-1.848-4.108-4.108v-23.784c0-2.26 1.848-4.108 4.108-4.108v0zM23.31 3.556c-0.792 0-1.44 0.648-1.44 1.44v3.448c0 0.792 0.648 1.44 1.44 1.44h3.616c0.792 0 1.44-0.648 1.44-1.44v-3.448c0-0.792-0.648-1.44-1.44-1.44h-3.616zM28.384 13.532h-2.816c0.266 0.87 0.41 1.792 0.41 2.746 0 5.322-4.454 9.638-9.946 9.638s-9.948-4.316-9.948-9.638c0-0.954 0.144-1.876 0.41-2.746h-2.938v13.518c0 0.7 0.572 1.272 1.272 1.272h22.284c0.7 0 1.272-0.572 1.272-1.272v-13.518zM16.030 9.704c-3.55 0-6.426 2.788-6.426 6.228s2.878 6.228 6.426 6.228 6.426-2.788 6.426-6.228c0.002-3.44-2.876-6.228-6.426-6.228z" fill="#000000" />
</svg>
