<?xml version="1.0" encoding="utf-8"?>
<!-- Generated by IcoMoon.io -->
<!DOCTYPE svg PUBLIC "-//W3C//DTD SVG 1.1//EN" "http://www.w3.org/Graphics/SVG/1.1/DTD/svg11.dtd">
<svg version="1.1" xmlns="http://www.w3.org/2000/svg" xmlns:xlink="http://www.w3.org/1999/xlink" width="32" height="32" viewBox="0 0 32 32">
  <g id="linkedin">
    <path d="M29.63,0H2.362C1.058,0,0,1.034,0,2.305v27.385C0,30.965,1.058,32,2.362,32H29.63c1.305,0,2.37-1.035,2.37-2.309V2.305
    C32,1.034,30.935,0,29.63,0z M9.49,27.269H4.742V11.998H9.49V27.269z M7.117,9.91c-1.521,0-2.751-1.233-2.751-2.753
    c0-1.518,1.23-2.751,2.751-2.751c1.517,0,2.751,1.233,2.751,2.751C9.867,8.676,8.634,9.91,7.117,9.91z M27.267,27.269h-4.741v-7.426
    c0-1.772-0.035-4.05-2.467-4.05c-2.47,0-2.847,1.929-2.847,3.921v7.554h-4.745V11.998h4.553v2.086h0.065
    c0.634-1.2,2.182-2.466,4.491-2.466c4.803,0,5.69,3.162,5.69,7.275V27.269z"/>
  </g>
</svg>
