<?xml version="1.0" encoding="utf-8"?>
<!-- Generated by IcoMoon.io -->
<!DOCTYPE svg PUBLIC "-//W3C//DTD SVG 1.1//EN" "http://www.w3.org/Graphics/SVG/1.1/DTD/svg11.dtd">
<svg version="1.1" xmlns="http://www.w3.org/2000/svg" xmlns:xlink="http://www.w3.org/1999/xlink" width="36" height="32" viewBox="0 0 36 32">
<g>
</g>
	<path d="M33.067 6.4h-29.866c-1.768 0-3.2-1.433-3.2-3.2s1.433-3.2 3.2-3.2h29.867c1.767 0 3.2 1.433 3.2 3.2s-1.433 3.2-3.2 3.2z" fill="#000000" />
	<path d="M33.067 19.2h-29.866c-1.768 0-3.2-1.433-3.2-3.2 0-1.768 1.433-3.2 3.2-3.2h29.867c1.767 0 3.2 1.433 3.2 3.2-0 1.767-1.434 3.2-3.201 3.2z" fill="#000000" />
	<path d="M33.067 32h-29.866c-1.768 0-3.2-1.433-3.2-3.2s1.433-3.2 3.2-3.2h29.867c1.767 0 3.2 1.433 3.2 3.2s-1.434 3.2-3.201 3.2z" fill="#000000" />
</svg>
