<?xml version="1.0" encoding="utf-8"?>
<!-- Generated by IcoMoon.io -->
<!DOCTYPE svg PUBLIC "-//W3C//DTD SVG 1.1//EN" "http://www.w3.org/Graphics/SVG/1.1/DTD/svg11.dtd">
<svg version="1.1" xmlns="http://www.w3.org/2000/svg" xmlns:xlink="http://www.w3.org/1999/xlink" width="32" height="32" viewBox="0 0 32 32">
<g>
</g>
	<path d="M19.2 14.4c0 0.884-0.716 1.6-1.6 1.6s-1.6-0.716-1.6-1.6c0-0.884 0.716-1.6 1.6-1.6 0.884 0 1.6 0.716 1.6 1.6z" fill="white" />
	<path d="M21.504 27.776v-7.040l-5.716 3.072-11.694-5.12v9.088h0.002z" fill="white" />
	<path d="M30.080 0h-21.76c-1.060 0-1.92 0.86-1.92 1.92v4.48h-4.48c-1.060 0-1.92 0.86-1.92 1.92v21.76c0 1.060 0.86 1.92 1.92 1.92h21.76c1.060 0 1.92-0.86 1.92-1.92v-4.48h4.48c1.060 0 1.92-0.86 1.92-1.92v-21.76c0-1.060-0.86-1.92-1.92-1.92zM23.040 29.44h-20.48v-20.48h20.48v20.48zM29.44 23.040h-3.84v-14.72c0-1.060-0.86-1.92-1.92-1.92h-14.72v-3.84h20.48v20.48z" fill="white" />
</svg>
