<?xml version="1.0" encoding="utf-8"?>
<!-- Generated by IcoMoon.io -->
<!DOCTYPE svg PUBLIC "-//W3C//DTD SVG 1.1//EN" "http://www.w3.org/Graphics/SVG/1.1/DTD/svg11.dtd">
<svg version="1.1" xmlns="http://www.w3.org/2000/svg" xmlns:xlink="http://www.w3.org/1999/xlink" width="32" height="32" viewBox="0 0 32 32">
  <g id="youtube">
    <path d="M31.68,9.602c0,0-0.313-2.205-1.272-3.176c-1.217-1.275-2.581-1.281-3.206-1.355c-4.478-0.324-11.195-0.324-11.195-0.324
    h-0.014c0,0-6.717,0-11.195,0.324C4.172,5.145,2.809,5.151,1.592,6.426C0.632,7.397,0.32,9.602,0.32,9.602S0,12.192,0,14.781
    v2.428c0,2.589,0.32,5.179,0.32,5.179s0.312,2.205,1.272,3.176c1.217,1.275,2.816,1.234,3.528,1.368
    C7.68,27.177,16,27.253,16,27.253s6.724-0.01,11.202-0.334c0.625-0.075,1.989-0.081,3.206-1.355
    c0.959-0.971,1.272-3.176,1.272-3.176S32,19.798,32,17.209v-2.428C32,12.192,31.68,9.602,31.68,9.602z M12.696,20.151
    l-0.002-8.991l8.647,4.511L12.696,20.151z"/>
  </g>
</svg>
